<svg xmlns="http://www.w3.org/2000/svg" width="191.81581mm" height="182.88657mm" viewBox="0 0 191.81581 182.88657"><g style="stroke-width:.260664"><path d="M291.852 372a2.19 2.19 0 0 0 2.191-2.176 2.178 2.178 0 0 0-2.176-2.195c-1.199 0-2.18.976-2.187 2.18 0 1.203.972 2.183 2.172 2.191m-4.805-2.2a4.816 4.816 0 1 1 4.797 4.833 4.813 4.813 0 0 1-4.797-4.832M315.75 370.027a2.178 2.178 0 0 0 2.188-2.172 2.187 2.187 0 0 0-2.172-2.195c-1.2 0-2.192.977-2.192 2.184a2.18 2.18 0 0 0 2.176 2.183m-4.809-2.199a4.815 4.815 0 0 1 4.829-4.797 4.815 4.815 0 0 1 4.804 4.832 4.81 4.81 0 0 1-4.832 4.797 4.811 4.811 0 0 1-4.8-4.832M325.82 347.922c1.2 0 2.18-.973 2.188-2.176a2.19 2.19 0 0 0-2.18-2.187c-1.2 0-2.18.968-2.18 2.175a2.173 2.173 0 0 0 2.172 2.188m-4.812-2.195a4.817 4.817 0 0 1 4.836-4.801 4.809 4.809 0 0 1 4.793 4.828c0 2.656-2.168 4.805-4.828 4.8a4.81 4.81 0 0 1-4.801-4.827M350.66 346.078a2.17 2.17 0 0 0 2.188-2.172 2.181 2.181 0 1 0-2.188 2.172m-4.805-2.191a4.817 4.817 0 0 1 4.829-4.809 4.821 4.821 0 0 1-.032 9.64c-2.652-.011-4.812-2.175-4.797-4.831M360.566 323.973c1.2.008 2.18-.97 2.188-2.176a2.18 2.18 0 1 0-4.363-.012 2.176 2.176 0 0 0 2.175 2.188m-4.804-2.2a4.813 4.813 0 1 1 9.625.031 4.811 4.811 0 0 1-4.828 4.805 4.804 4.804 0 0 1-4.797-4.836M385.492 321.805a2.18 2.18 0 0 0 2.184-2.184 2.18 2.18 0 0 0-2.176-2.183 2.186 2.186 0 0 0-2.195 2.175 2.19 2.19 0 0 0 2.187 2.192m-4.812-2.203c0-2.66 2.168-4.805 4.836-4.801a4.823 4.823 0 0 1 4.796 4.832 4.823 4.823 0 0 1-4.835 4.805 4.816 4.816 0 0 1-4.797-4.836M395.328 300.66a2.18 2.18 0 1 0 .012-4.36c-1.2 0-2.188.97-2.188 2.177 0 1.203.97 2.183 2.176 2.183m-4.812-2.195a4.824 4.824 0 0 1 4.832-4.8 4.816 4.816 0 0 1 4.8 4.831c0 2.656-2.168 4.805-4.828 4.797a4.824 4.824 0 0 1-4.804-4.828" style="fill:#008a3d;fill-opacity:1;fill-rule:nonzero;stroke:none;stroke-width:.260664" transform="matrix(1.35338 0 0 1.35338 -382.257 -357.478)"/><path d="M351.746 319.617c-6.293 1.406-11.469 8.399-11.469 8.399-5.64 8.175-4.297 14.32-4.297 14.32l15.723-22.617zm1.766 1.426-15.809 22.559s6.223-.86 11.961-8.98c0 0 4.777-7.267 3.93-13.65zm-20.258 26.676s-3.797-25.157 22.07-32c0 0 6.399 24.25-22.07 32" style="fill:#008a3d;fill-opacity:1;fill-rule:nonzero;stroke:none;stroke-width:.260664" transform="matrix(1.35338 0 0 1.35338 -382.257 -357.478)"/><path d="M384.574 326.64c-5.61-3.156-14.133-1.417-14.133-1.417-9.668 2.3-12.77 7.765-12.77 7.765l26.813-6.297zm.367 2.243-26.84 6.203s5.208 3.527 14.899 1.32c0 0 8.414-2.21 12.043-7.52zm-32.906 6.293s14.008-21.246 37.813-9.04c0 0-11.453 22.313-37.813 9.04M317.188 343.57c-6.282 1.403-11.45 8.395-11.45 8.395-5.66 8.176-4.312 14.324-4.312 14.324l15.722-22.621zm1.777 1.422-15.817 22.555s6.235-.852 11.961-8.977c0 0 4.778-7.27 3.93-13.644zm-20.266 26.684s-3.789-25.16 22.07-32.004c0 0 6.403 24.25-22.07 32.004" style="fill:#008a3d;fill-opacity:1;fill-rule:nonzero;stroke:none;stroke-width:.260664" transform="matrix(1.35338 0 0 1.35338 -382.257 -357.478)"/><path d="M349.602 350.805c-5.61-3.16-14.137-1.422-14.137-1.422-9.664 2.305-12.77 7.77-12.77 7.77l26.809-6.301zm.363 2.246-26.832 6.191s5.195 3.531 14.887 1.328c0 0 8.418-2.215 12.054-7.52zm-32.906 6.281s14.003-21.238 37.804-9.035c0 0-11.445 22.312-37.804 9.035M386.715 295.457c-6.274 1.402-11.453 8.39-11.453 8.39-5.653 8.18-4.313 14.321-4.313 14.321l15.738-22.613zm1.781 1.422-15.816 22.558s6.234-.851 11.957-8.976c0 0 4.785-7.274 3.937-13.649zm-20.266 26.683s-3.789-25.164 22.07-32.007c0 0 6.4 24.254-22.07 32.007" style="fill:#008a3d;fill-opacity:1;fill-rule:nonzero;stroke:none;stroke-width:.260664" transform="matrix(1.35338 0 0 1.35338 -382.257 -357.478)"/><path d="M418.914 303.547c-5.605-3.16-14.129-1.426-14.129-1.426-9.672 2.309-12.785 7.77-12.785 7.77l26.82-6.297zm.363 2.242-26.832 6.2s5.2 3.527 14.89 1.316c0 0 8.407-2.207 12.052-7.516zm-32.902 6.285s14.004-21.238 37.8-9.043c0 0-11.448 22.317-37.8 9.043M314.906 374.922c-5.636-3.098-14.144-1.285-14.144-1.285-9.649 2.39-12.711 7.886-12.711 7.886l26.762-6.546zm.375 2.246-26.77 6.45s5.235 3.48 14.907 1.183c0 0 8.398-2.29 11.984-7.637zm-32.836 6.594s13.801-21.371 37.727-9.395c0 0-11.25 22.422-37.727 9.395M290.246 362.445s3.82.016 6.363 2.153c0 0-1.765-9.985 10.61-21.442a44.942 44.942 0 0 1-1.414-8.695h-22.91a67.543 67.543 0 0 0 7.351 27.984" style="fill:#008a3d;fill-opacity:1;fill-rule:nonzero;stroke:none;stroke-width:.260664" transform="matrix(1.35338 0 0 1.35338 -382.257 -357.478)"/><path d="M320.957 372.438c1.379.535 1.8 1.496 1.8 1.496-3.632 8.293-12.136 12.378-12.136 12.378a67.277 67.277 0 0 0 38.89 12.958l.06-22.88a44.669 44.669 0 0 1-26.876-9.683c1.48 2.871-1.738 5.73-1.738 5.73M349.57 287.031v-22.894h-67.125v22.886h17.551c-9.93 9.864-16.328 25.137-17.09 41.282h22.848c1.867-23.02 21.207-41.2 43.816-41.274M355.887 264.137h68.289v22.886h-15.473v9.993c-1.445-.375-5.785.847-5.785.847-3.176-9.91-10.207-5.777-10.207-5.777-.098-.746-.738-2.664-.738-2.664-1.696-.43-6.172 1.262-6.172 1.262l.008-3.512v-.149h-29.91l-.012-22.886M408.703 351.684v-33.582c-5.793 2.418-16.383-.153-16.383-.153 1.258 5.434-1.613 7.02-1.613 7.02.734.43 1.688 1.492 1.688 1.492-1.5 5.004-6.73 8.605-6.73 8.605l-.036 10.852c-1.762 29.07-26.23 30.39-29.691 30.43v22.922s24.218-.54 41.09-19.043c0 0 9.59 11.605 27.148 16.511v-26.125s-15.235-5.097-15.473-18.93" style="fill:#008a3d;fill-opacity:1;fill-rule:nonzero;stroke:none;stroke-width:.260664" transform="matrix(1.35338 0 0 1.35338 -382.257 -357.478)"/></g></svg>